<?xml version="1.0" encoding="utf-8"?>
<!-- Generator: Adobe Illustrator 24.1.3, SVG Export Plug-In . SVG Version: 6.00 Build 0)  -->
<svg version="1.1" id="图层_1" xmlns="http://www.w3.org/2000/svg" xmlns:xlink="http://www.w3.org/1999/xlink" x="0px" y="0px"
	 viewBox="0 0 462.7 462.7" style="enable-background:new 0 0 462.7 462.7;" xml:space="preserve">
<style type="text/css">
	.st0{fill:url(#SVGID_1_);}
</style>
<linearGradient id="SVGID_1_" gradientUnits="userSpaceOnUse" x1="231.3535" y1="453.995" x2="231.3535" y2="8.711">
	<stop  offset="0" style="stop-color:#1A8EE9"/>
	<stop  offset="1" style="stop-color:#4AB3FF"/>
</linearGradient>
<path class="st0" d="M231.4,8.7c-123,0-222.6,99.7-222.6,222.6c0,123,99.7,222.6,222.6,222.6S454,354.3,454,231.4
	C454,108.4,354.3,8.7,231.4,8.7z M370.7,370.7c-35.7,35.7-84.8,57.7-139.3,57.7c-54.5,0-103.6-22-139.3-57.7
	c-35.7-35.7-57.7-84.8-57.7-139.3c0-54.5,22-103.6,57.7-139.3c35.7-35.7,84.8-57.7,139.3-57.7c54.5,0,103.6,22,139.3,57.7
	c35.7,35.7,57.7,84.8,57.7,139.3C428.3,285.8,406.3,334.9,370.7,370.7z"/>
</svg>
